<svg width="32" height="32" viewBox="0 0 32 32" fill="none" xmlns="http://www.w3.org/2000/svg">
<path d="M16.8082 31.6652C16.3619 32.1115 15.6383 32.1115 15.1919 31.6652L7.19195 23.6652C6.86509 23.3383 6.76731 22.8468 6.94421 22.4197C7.1211 21.9926 7.53783 21.7142 8.00007 21.7142L13.7144 21.7142L13.7144 2.28562C13.7144 1.02326 14.7377 -9.14424e-05 16.0001 -9.15527e-05C17.2624 -9.16631e-05 18.2858 1.02326 18.2858 2.28562L18.2858 21.7142L24.0001 21.7142C24.4623 21.7142 24.879 21.9926 25.0559 22.4197C25.2328 22.8468 25.135 23.3383 24.8082 23.6652L16.8082 31.6652Z" fill="white"/>
</svg>
